# xmcd
#
# Track frame offsets:
#	150
#	11075
#	21915
#	31714
#	42570
#	52050
#	62684
#	73338
#	85148
#	96111
#	105901
#	115785
#	128007
#	138243
#	149335
#	159140
#	168758
#	176791
#	188369
#	198874
#	209710
#	220774
#	230528
#	241658
#	252559
#	263372
#	272963
#	282323
#	295841
#	304409
#	315087
#	325510
#
# Disc length: 4476 seconds
#
# Revision: 1
# Processed by: cddbd v1.5.2PL0 Copyright (c) Steve Scherf et al.
# Submitted via: EZCDAudioConverter 7.1.1.1
#
DISCID=c1117a20
DTITLE=Various Artist - Rockin' Hillbilly - Vol. 03
DYEAR=1900
DGENRE=Hillbilly
TTITLE0=Jimmy Copeland - Radar
TTITLE1=Freddie Hart - Juke Joint Boogie
TTITLE2=Jimmy Lawson - Ole Jake Hammer Blues
TTITLE3=Gene Davis - Cruisin' For A Bruisin'
TTITLE4=Don Windle - I Want You Too
TTITLE5=Brilly Briggs - Honky Tonk Baby
TTITLE6=Lanie Walker - Why Baby Why
TTITLE7=Ted Newton - Save Me The Label
TTITLE8=Jimmie Haynie - Fast Silver Meteor
TTITLE9=Sonny Sims - Walk Off And Leave It
TTITLE10=Lee Emerson - So Little Time
TTITLE11=Smiley Wilson - Barnyard Blues
TTITLE12=Louis Innis - It Don't Pay To Advertise
TTITLE13=Tommy Davidson - I Don't Know Yet
TTITLE14=Slim Gordon - Your Autograph M'am
TTITLE15=George Stogner - Yes Sir!
TTITLE16=Ted West - She Bent My Pole
TTITLE17=Kenny Brown - Baby Baby Baby
TTITLE18=Jimmy Vernon - Still Afraid Of Losing You
TTITLE19=Ferlin Huskey - I'll Be Here For A Lifetime
TTITLE20=Charlie Faircloth - Coffee Cigarette And Tears
TTITLE21=Gene Stewart - Empty Seat In The Bar Room Booth
TTITLE22=Bobby Roberts - I'm Pullin' Steaks Ans Leavin' You
TTITLE23=The Carlisles - Woman Driver
TTITLE24=Dub Dickerson - Owl Hoot Blues
TTITLE25=Tom James - Your Kinda Lovin'
TTITLE26=Les And The Western Playboys - I Don't Care Anymore
TTITLE27=Hodges Brothers - Six White Horses
TTITLE28=Floyd Huffman - You Ain't Foolin' Me
TTITLE29=Freddie Hart - Canada To Tennessee
TTITLE30=Delbert Barker - How About A Handout
TTITLE31=Gary Bryant - Lover's Moon
EXTD=
EXTT0=
EXTT1=
EXTT2=
EXTT3=
EXTT4=
EXTT5=
EXTT6=
EXTT7=
EXTT8=
EXTT9=
EXTT10=
EXTT11=
EXTT12=
EXTT13=
EXTT14=
EXTT15=
EXTT16=
EXTT17=
EXTT18=
EXTT19=
EXTT20=
EXTT21=
EXTT22=
EXTT23=
EXTT24=
EXTT25=
EXTT26=
EXTT27=
EXTT28=
EXTT29=
EXTT30=
EXTT31=
PLAYORDER=
